M48
; DRILL file {KiCad (5.1.5)-3} date 1/11/2020 8:00:46 PM
; FORMAT={-:-/ absolute / inch / decimal}
; #@! TF.CreationDate,2020-01-11T20:00:46-05:00
; #@! TF.GenerationSoftware,Kicad,Pcbnew,(5.1.5)-3
; #@! TF.FileFunction,Plated,1,2,PTH
FMAT,2
INCH
T1C0.0150
T2C0.0200
T3C0.0236
T4C0.0300
T5C0.0315
T6C0.0354
T7C0.0394
T8C0.0520
%
G90
G05
T1
X5.3175Y-3.44
X5.3925Y-3.585
X5.41Y-3.155
X5.54Y-3.155
X5.57Y-3.125
X6.315Y-3.125
X6.335Y-3.155
X6.56Y-4.395
T2
X5.5425Y-3.3725
T3
X6.56Y-3.4709
X6.56Y-3.53
X4.8075Y-3.9175
X4.8575Y-3.9175
X4.9075Y-3.9175
X4.8075Y-3.7525
X4.8575Y-3.7525
X4.9075Y-3.7525
T4
X4.515Y-3.145
X4.7709Y-3.145
T5
X5.0325Y-3.7025
X5.4325Y-3.7025
X5.98Y-4.375
X6.38Y-4.375
X6.7425Y-3.82
X6.7425Y-4.0169
X5.49Y-4.375
X5.89Y-4.375
X5.39Y-3.48
X5.49Y-3.48
X5.59Y-3.48
X6.0925Y-4.245
X6.4925Y-4.245
X4.51Y-4.375
X4.91Y-4.375
X5.74Y-3.435
X6.14Y-3.435
X6.47Y-4.375
X6.87Y-4.375
X4.8581Y-3.46
X5.055Y-3.46
X6.2606Y-3.6725
X6.4575Y-3.6725
X4.5725Y-4.1775
X4.9725Y-4.1775
X5.0Y-4.375
X5.4Y-4.375
X5.0325Y-3.8325
X5.4325Y-3.8325
T6
X5.5679Y-3.225
X5.6663Y-3.225
X5.7647Y-3.225
X5.8631Y-3.225
X5.9616Y-3.225
X6.06Y-3.225
X6.36Y-3.225
X6.4584Y-3.225
X6.5569Y-3.225
X6.6553Y-3.225
X6.7537Y-3.225
X6.8521Y-3.225
X5.07Y-3.225
X5.1684Y-3.225
X5.2669Y-3.225
X4.5125Y-3.925
X4.5125Y-4.025
T7
X5.47Y-4.875
X5.57Y-4.875
X5.67Y-4.875
X5.77Y-4.875
X5.87Y-4.875
X5.97Y-4.875
X6.07Y-4.875
X6.17Y-4.875
X6.37Y-4.875
X6.47Y-4.875
X6.57Y-4.875
X6.67Y-4.875
X6.77Y-4.875
X6.87Y-4.875
X5.11Y-2.975
X5.21Y-2.975
X5.31Y-2.975
X5.41Y-2.975
X5.51Y-2.975
X5.61Y-2.975
X5.71Y-2.975
X5.81Y-2.975
X5.91Y-2.975
X6.01Y-2.975
X6.17Y-2.975
X6.27Y-2.975
X6.37Y-2.975
X6.47Y-2.975
X6.57Y-2.975
X6.67Y-2.975
X6.77Y-2.975
X6.87Y-2.975
X5.795Y-3.82
X5.895Y-3.82
X5.995Y-3.82
X6.9625Y-3.8975
X6.9625Y-3.9975
X6.9625Y-4.0975
T8
X5.74Y-4.595
X5.9369Y-4.595
X6.56Y-4.595
X6.15Y-4.595
X6.3469Y-4.595
X5.33Y-4.595
X5.5269Y-4.595
X6.8175Y-3.4531
X6.8175Y-3.65
X4.92Y-4.595
X5.1169Y-4.595
X4.585Y-3.5156
X4.585Y-3.7125
X6.7569Y-4.595
X4.5116Y-4.595
X4.7084Y-4.595
T0
M30
