G04 #@! TF.GenerationSoftware,KiCad,Pcbnew,(5.1.5)-3*
G04 #@! TF.CreationDate,2020-01-11T20:00:42-05:00*
G04 #@! TF.ProjectId,data_station_backpack,64617461-5f73-4746-9174-696f6e5f6261,rev?*
G04 #@! TF.SameCoordinates,Original*
G04 #@! TF.FileFunction,Legend,Top*
G04 #@! TF.FilePolarity,Positive*
%FSLAX46Y46*%
G04 Gerber Fmt 4.6, Leading zero omitted, Abs format (unit mm)*
G04 Created by KiCad (PCBNEW (5.1.5)-3) date 2020-01-11 20:00:42*
%MOMM*%
%LPD*%
G04 APERTURE LIST*
%ADD10C,0.254000*%
%ADD11C,0.152400*%
%ADD12C,0.120000*%
%ADD13C,0.127000*%
%ADD14C,0.150000*%
G04 APERTURE END LIST*
D10*
X128693333Y-103408238D02*
X128693333Y-101376238D01*
X129177142Y-101376238D01*
X129467428Y-101473000D01*
X129660952Y-101666523D01*
X129757714Y-101860047D01*
X129854476Y-102247095D01*
X129854476Y-102537380D01*
X129757714Y-102924428D01*
X129660952Y-103117952D01*
X129467428Y-103311476D01*
X129177142Y-103408238D01*
X128693333Y-103408238D01*
X131596190Y-103408238D02*
X131596190Y-102343857D01*
X131499428Y-102150333D01*
X131305904Y-102053571D01*
X130918857Y-102053571D01*
X130725333Y-102150333D01*
X131596190Y-103311476D02*
X131402666Y-103408238D01*
X130918857Y-103408238D01*
X130725333Y-103311476D01*
X130628571Y-103117952D01*
X130628571Y-102924428D01*
X130725333Y-102730904D01*
X130918857Y-102634142D01*
X131402666Y-102634142D01*
X131596190Y-102537380D01*
X132273523Y-102053571D02*
X133047619Y-102053571D01*
X132563809Y-101376238D02*
X132563809Y-103117952D01*
X132660571Y-103311476D01*
X132854095Y-103408238D01*
X133047619Y-103408238D01*
X134595809Y-103408238D02*
X134595809Y-102343857D01*
X134499047Y-102150333D01*
X134305523Y-102053571D01*
X133918476Y-102053571D01*
X133724952Y-102150333D01*
X134595809Y-103311476D02*
X134402285Y-103408238D01*
X133918476Y-103408238D01*
X133724952Y-103311476D01*
X133628190Y-103117952D01*
X133628190Y-102924428D01*
X133724952Y-102730904D01*
X133918476Y-102634142D01*
X134402285Y-102634142D01*
X134595809Y-102537380D01*
X137014857Y-103311476D02*
X137305142Y-103408238D01*
X137788952Y-103408238D01*
X137982476Y-103311476D01*
X138079238Y-103214714D01*
X138176000Y-103021190D01*
X138176000Y-102827666D01*
X138079238Y-102634142D01*
X137982476Y-102537380D01*
X137788952Y-102440619D01*
X137401904Y-102343857D01*
X137208380Y-102247095D01*
X137111619Y-102150333D01*
X137014857Y-101956809D01*
X137014857Y-101763285D01*
X137111619Y-101569761D01*
X137208380Y-101473000D01*
X137401904Y-101376238D01*
X137885714Y-101376238D01*
X138176000Y-101473000D01*
X138756571Y-102053571D02*
X139530666Y-102053571D01*
X139046857Y-101376238D02*
X139046857Y-103117952D01*
X139143619Y-103311476D01*
X139337142Y-103408238D01*
X139530666Y-103408238D01*
X141078857Y-103408238D02*
X141078857Y-102343857D01*
X140982095Y-102150333D01*
X140788571Y-102053571D01*
X140401523Y-102053571D01*
X140208000Y-102150333D01*
X141078857Y-103311476D02*
X140885333Y-103408238D01*
X140401523Y-103408238D01*
X140208000Y-103311476D01*
X140111238Y-103117952D01*
X140111238Y-102924428D01*
X140208000Y-102730904D01*
X140401523Y-102634142D01*
X140885333Y-102634142D01*
X141078857Y-102537380D01*
X141756190Y-102053571D02*
X142530285Y-102053571D01*
X142046476Y-101376238D02*
X142046476Y-103117952D01*
X142143238Y-103311476D01*
X142336761Y-103408238D01*
X142530285Y-103408238D01*
X143207619Y-103408238D02*
X143207619Y-102053571D01*
X143207619Y-101376238D02*
X143110857Y-101473000D01*
X143207619Y-101569761D01*
X143304380Y-101473000D01*
X143207619Y-101376238D01*
X143207619Y-101569761D01*
X144465523Y-103408238D02*
X144272000Y-103311476D01*
X144175238Y-103214714D01*
X144078476Y-103021190D01*
X144078476Y-102440619D01*
X144175238Y-102247095D01*
X144272000Y-102150333D01*
X144465523Y-102053571D01*
X144755809Y-102053571D01*
X144949333Y-102150333D01*
X145046095Y-102247095D01*
X145142857Y-102440619D01*
X145142857Y-103021190D01*
X145046095Y-103214714D01*
X144949333Y-103311476D01*
X144755809Y-103408238D01*
X144465523Y-103408238D01*
X146013714Y-102053571D02*
X146013714Y-103408238D01*
X146013714Y-102247095D02*
X146110476Y-102150333D01*
X146304000Y-102053571D01*
X146594285Y-102053571D01*
X146787809Y-102150333D01*
X146884571Y-102343857D01*
X146884571Y-103408238D01*
X149400380Y-103408238D02*
X149400380Y-101376238D01*
X150174476Y-101376238D01*
X150368000Y-101473000D01*
X150464761Y-101569761D01*
X150561523Y-101763285D01*
X150561523Y-102053571D01*
X150464761Y-102247095D01*
X150368000Y-102343857D01*
X150174476Y-102440619D01*
X149400380Y-102440619D01*
X151432380Y-103408238D02*
X151432380Y-102053571D01*
X151432380Y-101376238D02*
X151335619Y-101473000D01*
X151432380Y-101569761D01*
X151529142Y-101473000D01*
X151432380Y-101376238D01*
X151432380Y-101569761D01*
X153270857Y-102053571D02*
X153270857Y-103698523D01*
X153174095Y-103892047D01*
X153077333Y-103988809D01*
X152883809Y-104085571D01*
X152593523Y-104085571D01*
X152400000Y-103988809D01*
X153270857Y-103311476D02*
X153077333Y-103408238D01*
X152690285Y-103408238D01*
X152496761Y-103311476D01*
X152400000Y-103214714D01*
X152303238Y-103021190D01*
X152303238Y-102440619D01*
X152400000Y-102247095D01*
X152496761Y-102150333D01*
X152690285Y-102053571D01*
X153077333Y-102053571D01*
X153270857Y-102150333D01*
X155109333Y-102053571D02*
X155109333Y-103698523D01*
X155012571Y-103892047D01*
X154915809Y-103988809D01*
X154722285Y-104085571D01*
X154432000Y-104085571D01*
X154238476Y-103988809D01*
X155109333Y-103311476D02*
X154915809Y-103408238D01*
X154528761Y-103408238D01*
X154335238Y-103311476D01*
X154238476Y-103214714D01*
X154141714Y-103021190D01*
X154141714Y-102440619D01*
X154238476Y-102247095D01*
X154335238Y-102150333D01*
X154528761Y-102053571D01*
X154915809Y-102053571D01*
X155109333Y-102150333D01*
X155883428Y-102053571D02*
X156367238Y-103408238D01*
X156851047Y-102053571D02*
X156367238Y-103408238D01*
X156173714Y-103892047D01*
X156076952Y-103988809D01*
X155883428Y-104085571D01*
X158883047Y-101376238D02*
X159560380Y-103408238D01*
X160237714Y-101376238D01*
X161979428Y-103408238D02*
X160818285Y-103408238D01*
X161398857Y-103408238D02*
X161398857Y-101376238D01*
X161205333Y-101666523D01*
X161011809Y-101860047D01*
X160818285Y-101956809D01*
D11*
X168438285Y-121708333D02*
X168922095Y-121708333D01*
X168341523Y-121998619D02*
X168680190Y-120982619D01*
X169018857Y-121998619D01*
X169841333Y-120982619D02*
X169357523Y-120982619D01*
X169309142Y-121466428D01*
X169357523Y-121418047D01*
X169454285Y-121369666D01*
X169696190Y-121369666D01*
X169792952Y-121418047D01*
X169841333Y-121466428D01*
X169889714Y-121563190D01*
X169889714Y-121805095D01*
X169841333Y-121901857D01*
X169792952Y-121950238D01*
X169696190Y-121998619D01*
X169454285Y-121998619D01*
X169357523Y-121950238D01*
X169309142Y-121901857D01*
X158024285Y-121708333D02*
X158508095Y-121708333D01*
X157927523Y-121998619D02*
X158266190Y-120982619D01*
X158604857Y-121998619D01*
X159378952Y-121321285D02*
X159378952Y-121998619D01*
X159137047Y-120934238D02*
X158895142Y-121659952D01*
X159524095Y-121659952D01*
X147610285Y-121708333D02*
X148094095Y-121708333D01*
X147513523Y-121998619D02*
X147852190Y-120982619D01*
X148190857Y-121998619D01*
X148432761Y-120982619D02*
X149061714Y-120982619D01*
X148723047Y-121369666D01*
X148868190Y-121369666D01*
X148964952Y-121418047D01*
X149013333Y-121466428D01*
X149061714Y-121563190D01*
X149061714Y-121805095D01*
X149013333Y-121901857D01*
X148964952Y-121950238D01*
X148868190Y-121998619D01*
X148577904Y-121998619D01*
X148481142Y-121950238D01*
X148432761Y-121901857D01*
X137196285Y-121708333D02*
X137680095Y-121708333D01*
X137099523Y-121998619D02*
X137438190Y-120982619D01*
X137776857Y-121998619D01*
X138067142Y-121079380D02*
X138115523Y-121031000D01*
X138212285Y-120982619D01*
X138454190Y-120982619D01*
X138550952Y-121031000D01*
X138599333Y-121079380D01*
X138647714Y-121176142D01*
X138647714Y-121272904D01*
X138599333Y-121418047D01*
X138018761Y-121998619D01*
X138647714Y-121998619D01*
X126782285Y-121708333D02*
X127266095Y-121708333D01*
X126685523Y-121998619D02*
X127024190Y-120982619D01*
X127362857Y-121998619D01*
X128233714Y-121998619D02*
X127653142Y-121998619D01*
X127943428Y-121998619D02*
X127943428Y-120982619D01*
X127846666Y-121127761D01*
X127749904Y-121224523D01*
X127653142Y-121272904D01*
X116368285Y-121708333D02*
X116852095Y-121708333D01*
X116271523Y-121998619D02*
X116610190Y-120982619D01*
X116948857Y-121998619D01*
X117481047Y-120982619D02*
X117577809Y-120982619D01*
X117674571Y-121031000D01*
X117722952Y-121079380D01*
X117771333Y-121176142D01*
X117819714Y-121369666D01*
X117819714Y-121611571D01*
X117771333Y-121805095D01*
X117722952Y-121901857D01*
X117674571Y-121950238D01*
X117577809Y-121998619D01*
X117481047Y-121998619D01*
X117384285Y-121950238D01*
X117335904Y-121901857D01*
X117287523Y-121805095D01*
X117239142Y-121611571D01*
X117239142Y-121369666D01*
X117287523Y-121176142D01*
X117335904Y-121079380D01*
X117384285Y-121031000D01*
X117481047Y-120982619D01*
X111832571Y-88540166D02*
X111832571Y-88201500D01*
X111300380Y-88201500D02*
X112316380Y-88201500D01*
X112316380Y-88685309D01*
X111300380Y-89507785D02*
X111832571Y-89507785D01*
X111929333Y-89459404D01*
X111977714Y-89362642D01*
X111977714Y-89169119D01*
X111929333Y-89072357D01*
X111348761Y-89507785D02*
X111300380Y-89411023D01*
X111300380Y-89169119D01*
X111348761Y-89072357D01*
X111445523Y-89023976D01*
X111542285Y-89023976D01*
X111639047Y-89072357D01*
X111687428Y-89169119D01*
X111687428Y-89411023D01*
X111735809Y-89507785D01*
X111977714Y-89991595D02*
X111300380Y-89991595D01*
X111880952Y-89991595D02*
X111929333Y-90039976D01*
X111977714Y-90136738D01*
X111977714Y-90281880D01*
X111929333Y-90378642D01*
X111832571Y-90427023D01*
X111300380Y-90427023D01*
X111300380Y-92265500D02*
X111784190Y-91926833D01*
X111300380Y-91684928D02*
X112316380Y-91684928D01*
X112316380Y-92071976D01*
X112268000Y-92168738D01*
X112219619Y-92217119D01*
X112122857Y-92265500D01*
X111977714Y-92265500D01*
X111880952Y-92217119D01*
X111832571Y-92168738D01*
X111784190Y-92071976D01*
X111784190Y-91684928D01*
X111348761Y-93087976D02*
X111300380Y-92991214D01*
X111300380Y-92797690D01*
X111348761Y-92700928D01*
X111445523Y-92652547D01*
X111832571Y-92652547D01*
X111929333Y-92700928D01*
X111977714Y-92797690D01*
X111977714Y-92991214D01*
X111929333Y-93087976D01*
X111832571Y-93136357D01*
X111735809Y-93136357D01*
X111639047Y-92652547D01*
X111300380Y-93716928D02*
X111348761Y-93620166D01*
X111445523Y-93571785D01*
X112316380Y-93571785D01*
X111300380Y-94539404D02*
X111832571Y-94539404D01*
X111929333Y-94491023D01*
X111977714Y-94394261D01*
X111977714Y-94200738D01*
X111929333Y-94103976D01*
X111348761Y-94539404D02*
X111300380Y-94442642D01*
X111300380Y-94200738D01*
X111348761Y-94103976D01*
X111445523Y-94055595D01*
X111542285Y-94055595D01*
X111639047Y-94103976D01*
X111687428Y-94200738D01*
X111687428Y-94442642D01*
X111735809Y-94539404D01*
X111977714Y-94926452D02*
X111300380Y-95168357D01*
X111977714Y-95410261D02*
X111300380Y-95168357D01*
X111058476Y-95071595D01*
X111010095Y-95023214D01*
X110961714Y-94926452D01*
X178253571Y-93414547D02*
X178253571Y-92640452D01*
X178640619Y-93027500D02*
X177866523Y-93027500D01*
X178640619Y-91624452D02*
X178640619Y-92205023D01*
X178640619Y-91914738D02*
X177624619Y-91914738D01*
X177769761Y-92011500D01*
X177866523Y-92108261D01*
X177914904Y-92205023D01*
X177721380Y-91237404D02*
X177673000Y-91189023D01*
X177624619Y-91092261D01*
X177624619Y-90850357D01*
X177673000Y-90753595D01*
X177721380Y-90705214D01*
X177818142Y-90656833D01*
X177914904Y-90656833D01*
X178060047Y-90705214D01*
X178640619Y-91285785D01*
X178640619Y-90656833D01*
X177624619Y-90366547D02*
X178640619Y-90027880D01*
X177624619Y-89689214D01*
X178253571Y-89350547D02*
X178253571Y-88576452D01*
X129494642Y-78540428D02*
X129639785Y-78588809D01*
X129688166Y-78637190D01*
X129736547Y-78733952D01*
X129736547Y-78879095D01*
X129688166Y-78975857D01*
X129639785Y-79024238D01*
X129543023Y-79072619D01*
X129155976Y-79072619D01*
X129155976Y-78056619D01*
X129494642Y-78056619D01*
X129591404Y-78105000D01*
X129639785Y-78153380D01*
X129688166Y-78250142D01*
X129688166Y-78346904D01*
X129639785Y-78443666D01*
X129591404Y-78492047D01*
X129494642Y-78540428D01*
X129155976Y-78540428D01*
X130607404Y-78395285D02*
X130607404Y-79072619D01*
X130171976Y-78395285D02*
X130171976Y-78927476D01*
X130220357Y-79024238D01*
X130317119Y-79072619D01*
X130462261Y-79072619D01*
X130559023Y-79024238D01*
X130607404Y-78975857D01*
X130946071Y-78395285D02*
X131333119Y-78395285D01*
X131091214Y-78056619D02*
X131091214Y-78927476D01*
X131139595Y-79024238D01*
X131236357Y-79072619D01*
X131333119Y-79072619D01*
X131526642Y-78395285D02*
X131913690Y-78395285D01*
X131671785Y-78056619D02*
X131671785Y-78927476D01*
X131720166Y-79024238D01*
X131816928Y-79072619D01*
X131913690Y-79072619D01*
X132397500Y-79072619D02*
X132300738Y-79024238D01*
X132252357Y-78975857D01*
X132203976Y-78879095D01*
X132203976Y-78588809D01*
X132252357Y-78492047D01*
X132300738Y-78443666D01*
X132397500Y-78395285D01*
X132542642Y-78395285D01*
X132639404Y-78443666D01*
X132687785Y-78492047D01*
X132736166Y-78588809D01*
X132736166Y-78879095D01*
X132687785Y-78975857D01*
X132639404Y-79024238D01*
X132542642Y-79072619D01*
X132397500Y-79072619D01*
X133171595Y-78395285D02*
X133171595Y-79072619D01*
X133171595Y-78492047D02*
X133219976Y-78443666D01*
X133316738Y-78395285D01*
X133461880Y-78395285D01*
X133558642Y-78443666D01*
X133607023Y-78540428D01*
X133607023Y-79072619D01*
X145711333Y-78975857D02*
X145662952Y-79024238D01*
X145517809Y-79072619D01*
X145421047Y-79072619D01*
X145275904Y-79024238D01*
X145179142Y-78927476D01*
X145130761Y-78830714D01*
X145082380Y-78637190D01*
X145082380Y-78492047D01*
X145130761Y-78298523D01*
X145179142Y-78201761D01*
X145275904Y-78105000D01*
X145421047Y-78056619D01*
X145517809Y-78056619D01*
X145662952Y-78105000D01*
X145711333Y-78153380D01*
X146291904Y-79072619D02*
X146195142Y-79024238D01*
X146146761Y-78975857D01*
X146098380Y-78879095D01*
X146098380Y-78588809D01*
X146146761Y-78492047D01*
X146195142Y-78443666D01*
X146291904Y-78395285D01*
X146437047Y-78395285D01*
X146533809Y-78443666D01*
X146582190Y-78492047D01*
X146630571Y-78588809D01*
X146630571Y-78879095D01*
X146582190Y-78975857D01*
X146533809Y-79024238D01*
X146437047Y-79072619D01*
X146291904Y-79072619D01*
X147066000Y-78395285D02*
X147066000Y-79072619D01*
X147066000Y-78492047D02*
X147114380Y-78443666D01*
X147211142Y-78395285D01*
X147356285Y-78395285D01*
X147453047Y-78443666D01*
X147501428Y-78540428D01*
X147501428Y-79072619D01*
X147840095Y-78395285D02*
X148227142Y-78395285D01*
X147985238Y-78056619D02*
X147985238Y-78927476D01*
X148033619Y-79024238D01*
X148130380Y-79072619D01*
X148227142Y-79072619D01*
X148565809Y-79072619D02*
X148565809Y-78395285D01*
X148565809Y-78588809D02*
X148614190Y-78492047D01*
X148662571Y-78443666D01*
X148759333Y-78395285D01*
X148856095Y-78395285D01*
X149630190Y-79072619D02*
X149630190Y-78540428D01*
X149581809Y-78443666D01*
X149485047Y-78395285D01*
X149291523Y-78395285D01*
X149194761Y-78443666D01*
X149630190Y-79024238D02*
X149533428Y-79072619D01*
X149291523Y-79072619D01*
X149194761Y-79024238D01*
X149146380Y-78927476D01*
X149146380Y-78830714D01*
X149194761Y-78733952D01*
X149291523Y-78685571D01*
X149533428Y-78685571D01*
X149630190Y-78637190D01*
X150065619Y-79024238D02*
X150162380Y-79072619D01*
X150355904Y-79072619D01*
X150452666Y-79024238D01*
X150501047Y-78927476D01*
X150501047Y-78879095D01*
X150452666Y-78782333D01*
X150355904Y-78733952D01*
X150210761Y-78733952D01*
X150114000Y-78685571D01*
X150065619Y-78588809D01*
X150065619Y-78540428D01*
X150114000Y-78443666D01*
X150210761Y-78395285D01*
X150355904Y-78395285D01*
X150452666Y-78443666D01*
X150791333Y-78395285D02*
X151178380Y-78395285D01*
X150936476Y-78056619D02*
X150936476Y-78927476D01*
X150984857Y-79024238D01*
X151081619Y-79072619D01*
X151178380Y-79072619D01*
X165211880Y-79072619D02*
X165211880Y-78056619D01*
X165453785Y-78056619D01*
X165598928Y-78105000D01*
X165695690Y-78201761D01*
X165744071Y-78298523D01*
X165792452Y-78492047D01*
X165792452Y-78637190D01*
X165744071Y-78830714D01*
X165695690Y-78927476D01*
X165598928Y-79024238D01*
X165453785Y-79072619D01*
X165211880Y-79072619D01*
X166227880Y-79072619D02*
X166227880Y-78395285D01*
X166227880Y-78056619D02*
X166179500Y-78105000D01*
X166227880Y-78153380D01*
X166276261Y-78105000D01*
X166227880Y-78056619D01*
X166227880Y-78153380D01*
X166663309Y-79024238D02*
X166760071Y-79072619D01*
X166953595Y-79072619D01*
X167050357Y-79024238D01*
X167098738Y-78927476D01*
X167098738Y-78879095D01*
X167050357Y-78782333D01*
X166953595Y-78733952D01*
X166808452Y-78733952D01*
X166711690Y-78685571D01*
X166663309Y-78588809D01*
X166663309Y-78540428D01*
X166711690Y-78443666D01*
X166808452Y-78395285D01*
X166953595Y-78395285D01*
X167050357Y-78443666D01*
X167534166Y-78395285D02*
X167534166Y-79411285D01*
X167534166Y-78443666D02*
X167630928Y-78395285D01*
X167824452Y-78395285D01*
X167921214Y-78443666D01*
X167969595Y-78492047D01*
X168017976Y-78588809D01*
X168017976Y-78879095D01*
X167969595Y-78975857D01*
X167921214Y-79024238D01*
X167824452Y-79072619D01*
X167630928Y-79072619D01*
X167534166Y-79024238D01*
X168598547Y-79072619D02*
X168501785Y-79024238D01*
X168453404Y-78927476D01*
X168453404Y-78056619D01*
X169421023Y-79072619D02*
X169421023Y-78540428D01*
X169372642Y-78443666D01*
X169275880Y-78395285D01*
X169082357Y-78395285D01*
X168985595Y-78443666D01*
X169421023Y-79024238D02*
X169324261Y-79072619D01*
X169082357Y-79072619D01*
X168985595Y-79024238D01*
X168937214Y-78927476D01*
X168937214Y-78830714D01*
X168985595Y-78733952D01*
X169082357Y-78685571D01*
X169324261Y-78685571D01*
X169421023Y-78637190D01*
X169808071Y-78395285D02*
X170049976Y-79072619D01*
X170291880Y-78395285D02*
X170049976Y-79072619D01*
X169953214Y-79314523D01*
X169904833Y-79362904D01*
X169808071Y-79411285D01*
D12*
X155388000Y-76895000D02*
X155388000Y-75565000D01*
X156718000Y-76895000D02*
X155388000Y-76895000D01*
X157988000Y-76895000D02*
X157988000Y-74235000D01*
X157988000Y-74235000D02*
X175828000Y-74235000D01*
X157988000Y-76895000D02*
X175828000Y-76895000D01*
X175828000Y-76895000D02*
X175828000Y-74235000D01*
X143677000Y-88667000D02*
X142065000Y-90277000D01*
X143817000Y-88808000D02*
X142206000Y-90418000D01*
X144271000Y-85922000D02*
X144271000Y-90873000D01*
X134621000Y-85922000D02*
X134621000Y-90873000D01*
X134621000Y-90873000D02*
X144271000Y-90873000D01*
X134621000Y-85922000D02*
X144271000Y-85922000D01*
X142961121Y-90696052D02*
G75*
G02X141812000Y-89302000I-20121J1154052D01*
G01*
X142900691Y-88387704D02*
G75*
G02X142941000Y-90697000I40309J-1154296D01*
G01*
X170263500Y-102088000D02*
X169949500Y-102088000D01*
X172569500Y-102088000D02*
X172255500Y-102088000D01*
X170263500Y-96968000D02*
X169949500Y-96968000D01*
X172569500Y-96968000D02*
X172255500Y-96968000D01*
X169949500Y-96968000D02*
X169949500Y-102088000D01*
X172569500Y-96968000D02*
X172569500Y-102088000D01*
X166174000Y-90912000D02*
X167074000Y-90912000D01*
X166624000Y-91362000D02*
X166624000Y-90462000D01*
X166459000Y-86831000D02*
X166789000Y-86831000D01*
X166209000Y-86871000D02*
X167039000Y-86871000D01*
X166057000Y-86911000D02*
X167191000Y-86911000D01*
X165938000Y-86951000D02*
X167310000Y-86951000D01*
X165838000Y-86991000D02*
X167410000Y-86991000D01*
X165750000Y-87031000D02*
X167498000Y-87031000D01*
X165672000Y-87071000D02*
X167576000Y-87071000D01*
X165601000Y-87111000D02*
X167647000Y-87111000D01*
X165536000Y-87151000D02*
X167712000Y-87151000D01*
X165476000Y-87191000D02*
X167772000Y-87191000D01*
X165420000Y-87231000D02*
X167828000Y-87231000D01*
X165368000Y-87271000D02*
X167880000Y-87271000D01*
X165319000Y-87311000D02*
X167929000Y-87311000D01*
X165273000Y-87351000D02*
X167975000Y-87351000D01*
X167404000Y-87391000D02*
X168019000Y-87391000D01*
X165229000Y-87391000D02*
X165844000Y-87391000D01*
X167404000Y-87431000D02*
X168060000Y-87431000D01*
X165188000Y-87431000D02*
X165844000Y-87431000D01*
X167404000Y-87471000D02*
X168099000Y-87471000D01*
X165149000Y-87471000D02*
X165844000Y-87471000D01*
X167404000Y-87511000D02*
X168136000Y-87511000D01*
X165112000Y-87511000D02*
X165844000Y-87511000D01*
X167404000Y-87551000D02*
X168171000Y-87551000D01*
X165077000Y-87551000D02*
X165844000Y-87551000D01*
X167404000Y-87591000D02*
X168205000Y-87591000D01*
X165043000Y-87591000D02*
X165844000Y-87591000D01*
X167404000Y-87631000D02*
X168237000Y-87631000D01*
X165011000Y-87631000D02*
X165844000Y-87631000D01*
X167404000Y-87671000D02*
X168267000Y-87671000D01*
X164981000Y-87671000D02*
X165844000Y-87671000D01*
X167404000Y-87711000D02*
X168296000Y-87711000D01*
X164952000Y-87711000D02*
X165844000Y-87711000D01*
X167404000Y-87751000D02*
X168323000Y-87751000D01*
X164925000Y-87751000D02*
X165844000Y-87751000D01*
X167404000Y-87791000D02*
X168349000Y-87791000D01*
X164899000Y-87791000D02*
X165844000Y-87791000D01*
X167404000Y-87831000D02*
X168374000Y-87831000D01*
X164874000Y-87831000D02*
X165844000Y-87831000D01*
X167404000Y-87871000D02*
X168397000Y-87871000D01*
X164851000Y-87871000D02*
X165844000Y-87871000D01*
X167404000Y-87911000D02*
X168420000Y-87911000D01*
X164828000Y-87911000D02*
X165844000Y-87911000D01*
X167404000Y-87951000D02*
X168441000Y-87951000D01*
X164807000Y-87951000D02*
X165844000Y-87951000D01*
X167404000Y-87991000D02*
X168461000Y-87991000D01*
X164787000Y-87991000D02*
X165844000Y-87991000D01*
X167404000Y-88031000D02*
X168480000Y-88031000D01*
X164768000Y-88031000D02*
X165844000Y-88031000D01*
X167404000Y-88071000D02*
X168498000Y-88071000D01*
X164750000Y-88071000D02*
X165844000Y-88071000D01*
X167404000Y-88111000D02*
X168515000Y-88111000D01*
X164733000Y-88111000D02*
X165844000Y-88111000D01*
X167404000Y-88151000D02*
X168531000Y-88151000D01*
X164717000Y-88151000D02*
X165844000Y-88151000D01*
X167404000Y-88191000D02*
X168547000Y-88191000D01*
X164701000Y-88191000D02*
X165844000Y-88191000D01*
X167404000Y-88232000D02*
X168561000Y-88232000D01*
X164687000Y-88232000D02*
X165844000Y-88232000D01*
X167404000Y-88272000D02*
X168574000Y-88272000D01*
X164674000Y-88272000D02*
X165844000Y-88272000D01*
X167404000Y-88312000D02*
X168587000Y-88312000D01*
X164661000Y-88312000D02*
X165844000Y-88312000D01*
X167404000Y-88352000D02*
X168598000Y-88352000D01*
X164650000Y-88352000D02*
X165844000Y-88352000D01*
X167404000Y-88392000D02*
X168609000Y-88392000D01*
X164639000Y-88392000D02*
X165844000Y-88392000D01*
X167404000Y-88432000D02*
X168619000Y-88432000D01*
X164629000Y-88432000D02*
X165844000Y-88432000D01*
X167404000Y-88472000D02*
X168628000Y-88472000D01*
X164620000Y-88472000D02*
X165844000Y-88472000D01*
X167404000Y-88512000D02*
X168636000Y-88512000D01*
X164612000Y-88512000D02*
X165844000Y-88512000D01*
X167404000Y-88552000D02*
X168643000Y-88552000D01*
X164605000Y-88552000D02*
X165844000Y-88552000D01*
X167404000Y-88592000D02*
X168650000Y-88592000D01*
X164598000Y-88592000D02*
X165844000Y-88592000D01*
X167404000Y-88632000D02*
X168656000Y-88632000D01*
X164592000Y-88632000D02*
X165844000Y-88632000D01*
X167404000Y-88672000D02*
X168661000Y-88672000D01*
X164587000Y-88672000D02*
X165844000Y-88672000D01*
X167404000Y-88712000D02*
X168665000Y-88712000D01*
X164583000Y-88712000D02*
X165844000Y-88712000D01*
X167404000Y-88752000D02*
X168668000Y-88752000D01*
X164580000Y-88752000D02*
X165844000Y-88752000D01*
X167404000Y-88792000D02*
X168671000Y-88792000D01*
X164577000Y-88792000D02*
X165844000Y-88792000D01*
X167404000Y-88832000D02*
X168673000Y-88832000D01*
X164575000Y-88832000D02*
X165844000Y-88832000D01*
X167404000Y-88872000D02*
X168674000Y-88872000D01*
X164574000Y-88872000D02*
X165844000Y-88872000D01*
X164574000Y-88912000D02*
X165844000Y-88912000D01*
X167404000Y-88912000D02*
X168674000Y-88912000D01*
X167603170Y-87065564D02*
G75*
G03X165644000Y-87066004I-979170J-1846436D01*
G01*
X167603170Y-87065564D02*
G75*
G02X167604000Y-90757996I-979170J-1846436D01*
G01*
X165644830Y-87065564D02*
G75*
G03X165644000Y-90757996I979170J-1846436D01*
G01*
X164080500Y-94277500D02*
X164080500Y-94591500D01*
X164080500Y-91971500D02*
X164080500Y-92285500D01*
X158960500Y-94277500D02*
X158960500Y-94591500D01*
X158960500Y-91971500D02*
X158960500Y-92285500D01*
X158960500Y-94591500D02*
X164080500Y-94591500D01*
X158960500Y-91971500D02*
X164080500Y-91971500D01*
X123337000Y-86888000D02*
X123337000Y-86574000D01*
X123337000Y-89194000D02*
X123337000Y-88880000D01*
X128457000Y-86888000D02*
X128457000Y-86574000D01*
X128457000Y-89194000D02*
X128457000Y-88880000D01*
X128457000Y-86574000D02*
X123337000Y-86574000D01*
X128457000Y-89194000D02*
X123337000Y-89194000D01*
X113072500Y-103525000D02*
X116162500Y-103525000D01*
X117117500Y-100965000D02*
G75*
G03X117117500Y-100965000I-2500000J0D01*
G01*
X114617038Y-97975000D02*
G75*
G02X116162330Y-103525000I462J-2990000D01*
G01*
X114617962Y-97975000D02*
G75*
G03X113072670Y-103525000I-462J-2990000D01*
G01*
X116424000Y-109815000D02*
X116424000Y-112435000D01*
X116424000Y-112435000D02*
X122844000Y-112435000D01*
X122844000Y-112435000D02*
X122844000Y-109815000D01*
X122844000Y-109815000D02*
X116424000Y-109815000D01*
X115534000Y-111125000D02*
X116424000Y-111125000D01*
X123734000Y-111125000D02*
X122844000Y-111125000D01*
X128870000Y-109815000D02*
X128870000Y-112435000D01*
X128870000Y-112435000D02*
X135290000Y-112435000D01*
X135290000Y-112435000D02*
X135290000Y-109815000D01*
X135290000Y-109815000D02*
X128870000Y-109815000D01*
X127980000Y-111125000D02*
X128870000Y-111125000D01*
X136180000Y-111125000D02*
X135290000Y-111125000D01*
X148626000Y-111125000D02*
X147736000Y-111125000D01*
X140426000Y-111125000D02*
X141316000Y-111125000D01*
X147736000Y-109815000D02*
X141316000Y-109815000D01*
X147736000Y-112435000D02*
X147736000Y-109815000D01*
X141316000Y-112435000D02*
X147736000Y-112435000D01*
X141316000Y-109815000D02*
X141316000Y-112435000D01*
X153762000Y-109815000D02*
X153762000Y-112435000D01*
X153762000Y-112435000D02*
X160182000Y-112435000D01*
X160182000Y-112435000D02*
X160182000Y-109815000D01*
X160182000Y-109815000D02*
X153762000Y-109815000D01*
X152872000Y-111125000D02*
X153762000Y-111125000D01*
X161072000Y-111125000D02*
X160182000Y-111125000D01*
X173518000Y-111125000D02*
X172628000Y-111125000D01*
X165318000Y-111125000D02*
X166208000Y-111125000D01*
X172628000Y-109815000D02*
X166208000Y-109815000D01*
X172628000Y-112435000D02*
X172628000Y-109815000D01*
X166208000Y-112435000D02*
X172628000Y-112435000D01*
X166208000Y-109815000D02*
X166208000Y-112435000D01*
X156619500Y-106513000D02*
X156619500Y-109133000D01*
X156619500Y-109133000D02*
X163039500Y-109133000D01*
X163039500Y-109133000D02*
X163039500Y-106513000D01*
X163039500Y-106513000D02*
X156619500Y-106513000D01*
X155729500Y-107823000D02*
X156619500Y-107823000D01*
X163929500Y-107823000D02*
X163039500Y-107823000D01*
X137005500Y-94043500D02*
X136115500Y-94043500D01*
X128805500Y-94043500D02*
X129695500Y-94043500D01*
X136115500Y-92733500D02*
X129695500Y-92733500D01*
X136115500Y-95353500D02*
X136115500Y-92733500D01*
X129695500Y-95353500D02*
X136115500Y-95353500D01*
X129695500Y-92733500D02*
X129695500Y-95353500D01*
X147666000Y-85939000D02*
X147666000Y-88559000D01*
X147666000Y-88559000D02*
X154086000Y-88559000D01*
X154086000Y-88559000D02*
X154086000Y-85939000D01*
X154086000Y-85939000D02*
X147666000Y-85939000D01*
X146776000Y-87249000D02*
X147666000Y-87249000D01*
X154976000Y-87249000D02*
X154086000Y-87249000D01*
X117121500Y-106108500D02*
X118011500Y-106108500D01*
X125321500Y-106108500D02*
X124431500Y-106108500D01*
X118011500Y-107418500D02*
X124431500Y-107418500D01*
X118011500Y-104798500D02*
X118011500Y-107418500D01*
X124431500Y-104798500D02*
X118011500Y-104798500D01*
X124431500Y-107418500D02*
X124431500Y-104798500D01*
X137005500Y-97345500D02*
X136115500Y-97345500D01*
X128805500Y-97345500D02*
X129695500Y-97345500D01*
X136115500Y-96035500D02*
X129695500Y-96035500D01*
X136115500Y-98655500D02*
X136115500Y-96035500D01*
X129695500Y-98655500D02*
X136115500Y-98655500D01*
X129695500Y-96035500D02*
X129695500Y-98655500D01*
X179467500Y-103387500D02*
X177957500Y-103387500D01*
X179467500Y-99686500D02*
X177957500Y-99686500D01*
X177957500Y-96416500D02*
X177957500Y-106656500D01*
X179467500Y-106656500D02*
X174826500Y-106656500D01*
X179467500Y-96416500D02*
X174826500Y-96416500D01*
X174826500Y-96416500D02*
X174826500Y-106656500D01*
X179467500Y-96416500D02*
X179467500Y-106656500D01*
D13*
X123931000Y-79883000D02*
G75*
G03X123931000Y-79883000I-6000000J0D01*
G01*
X121994000Y-112838000D02*
X121994000Y-120588000D01*
X121994000Y-120588000D02*
X112194000Y-120588000D01*
X112194000Y-120588000D02*
X112194000Y-112838000D01*
X112194000Y-112838000D02*
X121994000Y-112838000D01*
X132368000Y-112838000D02*
X132368000Y-120588000D01*
X132368000Y-120588000D02*
X122568000Y-120588000D01*
X122568000Y-120588000D02*
X122568000Y-112838000D01*
X122568000Y-112838000D02*
X132368000Y-112838000D01*
D12*
X138774000Y-80165000D02*
X138774000Y-84265000D01*
X138774000Y-84265000D02*
X156574000Y-84265000D01*
X156574000Y-84265000D02*
X156574000Y-80165000D01*
X156574000Y-80165000D02*
X138774000Y-80165000D01*
X138774000Y-81915000D02*
X139274000Y-81915000D01*
X139274000Y-81915000D02*
X139274000Y-80665000D01*
X139274000Y-80665000D02*
X156074000Y-80665000D01*
X156074000Y-80665000D02*
X156074000Y-81915000D01*
X156074000Y-81915000D02*
X156574000Y-81915000D01*
X138774000Y-82765000D02*
X139774000Y-82765000D01*
X139774000Y-82765000D02*
X139774000Y-84265000D01*
X156574000Y-82765000D02*
X155574000Y-82765000D01*
X155574000Y-82765000D02*
X155574000Y-84265000D01*
X138474000Y-82065000D02*
X138474000Y-84565000D01*
X138474000Y-84565000D02*
X140974000Y-84565000D01*
D13*
X132982000Y-112838000D02*
X142782000Y-112838000D01*
X132982000Y-120588000D02*
X132982000Y-112838000D01*
X142782000Y-120588000D02*
X132982000Y-120588000D01*
X142782000Y-112838000D02*
X142782000Y-120588000D01*
X153196000Y-112838000D02*
X153196000Y-120588000D01*
X153196000Y-120588000D02*
X143396000Y-120588000D01*
X143396000Y-120588000D02*
X143396000Y-112838000D01*
X143396000Y-112838000D02*
X153196000Y-112838000D01*
X153810000Y-112838000D02*
X163610000Y-112838000D01*
X153810000Y-120588000D02*
X153810000Y-112838000D01*
X163610000Y-120588000D02*
X153810000Y-120588000D01*
X163610000Y-112838000D02*
X163610000Y-120588000D01*
D12*
X158594000Y-84565000D02*
X161094000Y-84565000D01*
X158594000Y-82065000D02*
X158594000Y-84565000D01*
X175694000Y-82765000D02*
X175694000Y-84265000D01*
X176694000Y-82765000D02*
X175694000Y-82765000D01*
X159894000Y-82765000D02*
X159894000Y-84265000D01*
X158894000Y-82765000D02*
X159894000Y-82765000D01*
X176194000Y-81915000D02*
X176694000Y-81915000D01*
X176194000Y-80665000D02*
X176194000Y-81915000D01*
X159394000Y-80665000D02*
X176194000Y-80665000D01*
X159394000Y-81915000D02*
X159394000Y-80665000D01*
X158894000Y-81915000D02*
X159394000Y-81915000D01*
X176694000Y-80165000D02*
X158894000Y-80165000D01*
X176694000Y-84265000D02*
X176694000Y-80165000D01*
X158894000Y-84265000D02*
X176694000Y-84265000D01*
X158894000Y-80165000D02*
X158894000Y-84265000D01*
D13*
X174024000Y-112838000D02*
X174024000Y-120588000D01*
X174024000Y-120588000D02*
X164224000Y-120588000D01*
X164224000Y-120588000D02*
X164224000Y-112838000D01*
X164224000Y-112838000D02*
X174024000Y-112838000D01*
X120334000Y-86897500D02*
X120334000Y-96697500D01*
X112584000Y-86897500D02*
X120334000Y-86897500D01*
X112584000Y-96697500D02*
X112584000Y-86897500D01*
X120334000Y-96697500D02*
X112584000Y-96697500D01*
D12*
X125828000Y-84565000D02*
X128328000Y-84565000D01*
X125828000Y-82065000D02*
X125828000Y-84565000D01*
X135428000Y-82765000D02*
X135428000Y-84265000D01*
X136428000Y-82765000D02*
X135428000Y-82765000D01*
X127128000Y-82765000D02*
X127128000Y-84265000D01*
X126128000Y-82765000D02*
X127128000Y-82765000D01*
X135928000Y-81915000D02*
X136428000Y-81915000D01*
X135928000Y-80665000D02*
X135928000Y-81915000D01*
X126628000Y-80665000D02*
X135928000Y-80665000D01*
X126628000Y-81915000D02*
X126628000Y-80665000D01*
X126128000Y-81915000D02*
X126628000Y-81915000D01*
X136428000Y-80165000D02*
X126128000Y-80165000D01*
X136428000Y-84265000D02*
X136428000Y-80165000D01*
X126128000Y-84265000D02*
X136428000Y-84265000D01*
X126128000Y-80165000D02*
X126128000Y-84265000D01*
X145863000Y-98358000D02*
X145863000Y-97028000D01*
X147193000Y-98358000D02*
X145863000Y-98358000D01*
X148463000Y-98358000D02*
X148463000Y-95698000D01*
X148463000Y-95698000D02*
X153603000Y-95698000D01*
X148463000Y-98358000D02*
X153603000Y-98358000D01*
X153603000Y-98358000D02*
X153603000Y-95698000D01*
X160468000Y-125155000D02*
X160468000Y-123825000D01*
X161798000Y-125155000D02*
X160468000Y-125155000D01*
X163068000Y-125155000D02*
X163068000Y-122495000D01*
X163068000Y-122495000D02*
X175828000Y-122495000D01*
X163068000Y-125155000D02*
X175828000Y-125155000D01*
X175828000Y-125155000D02*
X175828000Y-122495000D01*
X158048000Y-125155000D02*
X158048000Y-122495000D01*
X140208000Y-125155000D02*
X158048000Y-125155000D01*
X140208000Y-122495000D02*
X158048000Y-122495000D01*
X140208000Y-125155000D02*
X140208000Y-122495000D01*
X138938000Y-125155000D02*
X137608000Y-125155000D01*
X137608000Y-125155000D02*
X137608000Y-123825000D01*
X128464000Y-76895000D02*
X128464000Y-75565000D01*
X129794000Y-76895000D02*
X128464000Y-76895000D01*
X131064000Y-76895000D02*
X131064000Y-74235000D01*
X131064000Y-74235000D02*
X153984000Y-74235000D01*
X131064000Y-76895000D02*
X153984000Y-76895000D01*
X153984000Y-76895000D02*
X153984000Y-74235000D01*
D13*
X169289500Y-85310000D02*
X177039500Y-85310000D01*
X177039500Y-85310000D02*
X177039500Y-95110000D01*
X177039500Y-95110000D02*
X169289500Y-95110000D01*
X169289500Y-95110000D02*
X169289500Y-85310000D01*
D12*
X125218978Y-97151978D02*
G75*
G03X123380500Y-92713500I-1838478J1838478D01*
G01*
X121542022Y-97151978D02*
G75*
G02X123380500Y-92713500I1838478J1838478D01*
G01*
X121580500Y-97163500D02*
X125180500Y-97163500D01*
X125180500Y-97654500D02*
X121580500Y-97654500D01*
X125218978Y-97666022D02*
G75*
G02X123380500Y-102104500I-1838478J-1838478D01*
G01*
X121542022Y-97666022D02*
G75*
G03X123380500Y-102104500I1838478J-1838478D01*
G01*
D14*
X133056333Y-88399880D02*
X132723000Y-87923690D01*
X132484904Y-88399880D02*
X132484904Y-87399880D01*
X132865857Y-87399880D01*
X132961095Y-87447500D01*
X133008714Y-87495119D01*
X133056333Y-87590357D01*
X133056333Y-87733214D01*
X133008714Y-87828452D01*
X132961095Y-87876071D01*
X132865857Y-87923690D01*
X132484904Y-87923690D01*
X133532523Y-88399880D02*
X133723000Y-88399880D01*
X133818238Y-88352261D01*
X133865857Y-88304642D01*
X133961095Y-88161785D01*
X134008714Y-87971309D01*
X134008714Y-87590357D01*
X133961095Y-87495119D01*
X133913476Y-87447500D01*
X133818238Y-87399880D01*
X133627761Y-87399880D01*
X133532523Y-87447500D01*
X133484904Y-87495119D01*
X133437285Y-87590357D01*
X133437285Y-87828452D01*
X133484904Y-87923690D01*
X133532523Y-87971309D01*
X133627761Y-88018928D01*
X133818238Y-88018928D01*
X133913476Y-87971309D01*
X133961095Y-87923690D01*
X134008714Y-87828452D01*
X174176642Y-99694666D02*
X174224261Y-99742285D01*
X174271880Y-99885142D01*
X174271880Y-99980380D01*
X174224261Y-100123238D01*
X174129023Y-100218476D01*
X174033785Y-100266095D01*
X173843309Y-100313714D01*
X173700452Y-100313714D01*
X173509976Y-100266095D01*
X173414738Y-100218476D01*
X173319500Y-100123238D01*
X173271880Y-99980380D01*
X173271880Y-99885142D01*
X173319500Y-99742285D01*
X173367119Y-99694666D01*
X174271880Y-98742285D02*
X174271880Y-99313714D01*
X174271880Y-99028000D02*
X173271880Y-99028000D01*
X173414738Y-99123238D01*
X173509976Y-99218476D01*
X173557595Y-99313714D01*
X163671142Y-89078666D02*
X163718761Y-89126285D01*
X163766380Y-89269142D01*
X163766380Y-89364380D01*
X163718761Y-89507238D01*
X163623523Y-89602476D01*
X163528285Y-89650095D01*
X163337809Y-89697714D01*
X163194952Y-89697714D01*
X163004476Y-89650095D01*
X162909238Y-89602476D01*
X162814000Y-89507238D01*
X162766380Y-89364380D01*
X162766380Y-89269142D01*
X162814000Y-89126285D01*
X162861619Y-89078666D01*
X162861619Y-88697714D02*
X162814000Y-88650095D01*
X162766380Y-88554857D01*
X162766380Y-88316761D01*
X162814000Y-88221523D01*
X162861619Y-88173904D01*
X162956857Y-88126285D01*
X163052095Y-88126285D01*
X163194952Y-88173904D01*
X163766380Y-88745333D01*
X163766380Y-88126285D01*
X161353833Y-91078642D02*
X161306214Y-91126261D01*
X161163357Y-91173880D01*
X161068119Y-91173880D01*
X160925261Y-91126261D01*
X160830023Y-91031023D01*
X160782404Y-90935785D01*
X160734785Y-90745309D01*
X160734785Y-90602452D01*
X160782404Y-90411976D01*
X160830023Y-90316738D01*
X160925261Y-90221500D01*
X161068119Y-90173880D01*
X161163357Y-90173880D01*
X161306214Y-90221500D01*
X161353833Y-90269119D01*
X161687166Y-90173880D02*
X162306214Y-90173880D01*
X161972880Y-90554833D01*
X162115738Y-90554833D01*
X162210976Y-90602452D01*
X162258595Y-90650071D01*
X162306214Y-90745309D01*
X162306214Y-90983404D01*
X162258595Y-91078642D01*
X162210976Y-91126261D01*
X162115738Y-91173880D01*
X161830023Y-91173880D01*
X161734785Y-91126261D01*
X161687166Y-91078642D01*
X125730333Y-90801142D02*
X125682714Y-90848761D01*
X125539857Y-90896380D01*
X125444619Y-90896380D01*
X125301761Y-90848761D01*
X125206523Y-90753523D01*
X125158904Y-90658285D01*
X125111285Y-90467809D01*
X125111285Y-90324952D01*
X125158904Y-90134476D01*
X125206523Y-90039238D01*
X125301761Y-89944000D01*
X125444619Y-89896380D01*
X125539857Y-89896380D01*
X125682714Y-89944000D01*
X125730333Y-89991619D01*
X126635095Y-89896380D02*
X126158904Y-89896380D01*
X126111285Y-90372571D01*
X126158904Y-90324952D01*
X126254142Y-90277333D01*
X126492238Y-90277333D01*
X126587476Y-90324952D01*
X126635095Y-90372571D01*
X126682714Y-90467809D01*
X126682714Y-90705904D01*
X126635095Y-90801142D01*
X126587476Y-90848761D01*
X126492238Y-90896380D01*
X126254142Y-90896380D01*
X126158904Y-90848761D01*
X126111285Y-90801142D01*
X112466380Y-105068595D02*
X111466380Y-105068595D01*
X111466380Y-104830500D01*
X111514000Y-104687642D01*
X111609238Y-104592404D01*
X111704476Y-104544785D01*
X111894952Y-104497166D01*
X112037809Y-104497166D01*
X112228285Y-104544785D01*
X112323523Y-104592404D01*
X112418761Y-104687642D01*
X112466380Y-104830500D01*
X112466380Y-105068595D01*
X112466380Y-103544785D02*
X112466380Y-104116214D01*
X112466380Y-103830500D02*
X111466380Y-103830500D01*
X111609238Y-103925738D01*
X111704476Y-104020976D01*
X111752095Y-104116214D01*
X119467333Y-109267380D02*
X119134000Y-108791190D01*
X118895904Y-109267380D02*
X118895904Y-108267380D01*
X119276857Y-108267380D01*
X119372095Y-108315000D01*
X119419714Y-108362619D01*
X119467333Y-108457857D01*
X119467333Y-108600714D01*
X119419714Y-108695952D01*
X119372095Y-108743571D01*
X119276857Y-108791190D01*
X118895904Y-108791190D01*
X120419714Y-109267380D02*
X119848285Y-109267380D01*
X120134000Y-109267380D02*
X120134000Y-108267380D01*
X120038761Y-108410238D01*
X119943523Y-108505476D01*
X119848285Y-108553095D01*
X131913333Y-109267380D02*
X131580000Y-108791190D01*
X131341904Y-109267380D02*
X131341904Y-108267380D01*
X131722857Y-108267380D01*
X131818095Y-108315000D01*
X131865714Y-108362619D01*
X131913333Y-108457857D01*
X131913333Y-108600714D01*
X131865714Y-108695952D01*
X131818095Y-108743571D01*
X131722857Y-108791190D01*
X131341904Y-108791190D01*
X132294285Y-108362619D02*
X132341904Y-108315000D01*
X132437142Y-108267380D01*
X132675238Y-108267380D01*
X132770476Y-108315000D01*
X132818095Y-108362619D01*
X132865714Y-108457857D01*
X132865714Y-108553095D01*
X132818095Y-108695952D01*
X132246666Y-109267380D01*
X132865714Y-109267380D01*
X144359333Y-109267380D02*
X144026000Y-108791190D01*
X143787904Y-109267380D02*
X143787904Y-108267380D01*
X144168857Y-108267380D01*
X144264095Y-108315000D01*
X144311714Y-108362619D01*
X144359333Y-108457857D01*
X144359333Y-108600714D01*
X144311714Y-108695952D01*
X144264095Y-108743571D01*
X144168857Y-108791190D01*
X143787904Y-108791190D01*
X144692666Y-108267380D02*
X145311714Y-108267380D01*
X144978380Y-108648333D01*
X145121238Y-108648333D01*
X145216476Y-108695952D01*
X145264095Y-108743571D01*
X145311714Y-108838809D01*
X145311714Y-109076904D01*
X145264095Y-109172142D01*
X145216476Y-109219761D01*
X145121238Y-109267380D01*
X144835523Y-109267380D01*
X144740285Y-109219761D01*
X144692666Y-109172142D01*
X152487333Y-109545380D02*
X152154000Y-109069190D01*
X151915904Y-109545380D02*
X151915904Y-108545380D01*
X152296857Y-108545380D01*
X152392095Y-108593000D01*
X152439714Y-108640619D01*
X152487333Y-108735857D01*
X152487333Y-108878714D01*
X152439714Y-108973952D01*
X152392095Y-109021571D01*
X152296857Y-109069190D01*
X151915904Y-109069190D01*
X153344476Y-108878714D02*
X153344476Y-109545380D01*
X153106380Y-108497761D02*
X152868285Y-109212047D01*
X153487333Y-109212047D01*
X168997333Y-109291380D02*
X168664000Y-108815190D01*
X168425904Y-109291380D02*
X168425904Y-108291380D01*
X168806857Y-108291380D01*
X168902095Y-108339000D01*
X168949714Y-108386619D01*
X168997333Y-108481857D01*
X168997333Y-108624714D01*
X168949714Y-108719952D01*
X168902095Y-108767571D01*
X168806857Y-108815190D01*
X168425904Y-108815190D01*
X169902095Y-108291380D02*
X169425904Y-108291380D01*
X169378285Y-108767571D01*
X169425904Y-108719952D01*
X169521142Y-108672333D01*
X169759238Y-108672333D01*
X169854476Y-108719952D01*
X169902095Y-108767571D01*
X169949714Y-108862809D01*
X169949714Y-109100904D01*
X169902095Y-109196142D01*
X169854476Y-109243761D01*
X169759238Y-109291380D01*
X169521142Y-109291380D01*
X169425904Y-109243761D01*
X169378285Y-109196142D01*
X159853333Y-105989380D02*
X159520000Y-105513190D01*
X159281904Y-105989380D02*
X159281904Y-104989380D01*
X159662857Y-104989380D01*
X159758095Y-105037000D01*
X159805714Y-105084619D01*
X159853333Y-105179857D01*
X159853333Y-105322714D01*
X159805714Y-105417952D01*
X159758095Y-105465571D01*
X159662857Y-105513190D01*
X159281904Y-105513190D01*
X160710476Y-104989380D02*
X160520000Y-104989380D01*
X160424761Y-105037000D01*
X160377142Y-105084619D01*
X160281904Y-105227476D01*
X160234285Y-105417952D01*
X160234285Y-105798904D01*
X160281904Y-105894142D01*
X160329523Y-105941761D01*
X160424761Y-105989380D01*
X160615238Y-105989380D01*
X160710476Y-105941761D01*
X160758095Y-105894142D01*
X160805714Y-105798904D01*
X160805714Y-105560809D01*
X160758095Y-105465571D01*
X160710476Y-105417952D01*
X160615238Y-105370333D01*
X160424761Y-105370333D01*
X160329523Y-105417952D01*
X160281904Y-105465571D01*
X160234285Y-105560809D01*
X140041333Y-94495880D02*
X139708000Y-94019690D01*
X139469904Y-94495880D02*
X139469904Y-93495880D01*
X139850857Y-93495880D01*
X139946095Y-93543500D01*
X139993714Y-93591119D01*
X140041333Y-93686357D01*
X140041333Y-93829214D01*
X139993714Y-93924452D01*
X139946095Y-93972071D01*
X139850857Y-94019690D01*
X139469904Y-94019690D01*
X140374666Y-93495880D02*
X141041333Y-93495880D01*
X140612761Y-94495880D01*
X150518833Y-90177880D02*
X150185500Y-89701690D01*
X149947404Y-90177880D02*
X149947404Y-89177880D01*
X150328357Y-89177880D01*
X150423595Y-89225500D01*
X150471214Y-89273119D01*
X150518833Y-89368357D01*
X150518833Y-89511214D01*
X150471214Y-89606452D01*
X150423595Y-89654071D01*
X150328357Y-89701690D01*
X149947404Y-89701690D01*
X151090261Y-89606452D02*
X150995023Y-89558833D01*
X150947404Y-89511214D01*
X150899785Y-89415976D01*
X150899785Y-89368357D01*
X150947404Y-89273119D01*
X150995023Y-89225500D01*
X151090261Y-89177880D01*
X151280738Y-89177880D01*
X151375976Y-89225500D01*
X151423595Y-89273119D01*
X151471214Y-89368357D01*
X151471214Y-89415976D01*
X151423595Y-89511214D01*
X151375976Y-89558833D01*
X151280738Y-89606452D01*
X151090261Y-89606452D01*
X150995023Y-89654071D01*
X150947404Y-89701690D01*
X150899785Y-89796928D01*
X150899785Y-89987404D01*
X150947404Y-90082642D01*
X150995023Y-90130261D01*
X151090261Y-90177880D01*
X151280738Y-90177880D01*
X151375976Y-90130261D01*
X151423595Y-90082642D01*
X151471214Y-89987404D01*
X151471214Y-89796928D01*
X151423595Y-89701690D01*
X151375976Y-89654071D01*
X151280738Y-89606452D01*
X119816642Y-104401880D02*
X119483309Y-103925690D01*
X119245214Y-104401880D02*
X119245214Y-103401880D01*
X119626166Y-103401880D01*
X119721404Y-103449500D01*
X119769023Y-103497119D01*
X119816642Y-103592357D01*
X119816642Y-103735214D01*
X119769023Y-103830452D01*
X119721404Y-103878071D01*
X119626166Y-103925690D01*
X119245214Y-103925690D01*
X120769023Y-104401880D02*
X120197595Y-104401880D01*
X120483309Y-104401880D02*
X120483309Y-103401880D01*
X120388071Y-103544738D01*
X120292833Y-103639976D01*
X120197595Y-103687595D01*
X121388071Y-103401880D02*
X121483309Y-103401880D01*
X121578547Y-103449500D01*
X121626166Y-103497119D01*
X121673785Y-103592357D01*
X121721404Y-103782833D01*
X121721404Y-104020928D01*
X121673785Y-104211404D01*
X121626166Y-104306642D01*
X121578547Y-104354261D01*
X121483309Y-104401880D01*
X121388071Y-104401880D01*
X121292833Y-104354261D01*
X121245214Y-104306642D01*
X121197595Y-104211404D01*
X121149976Y-104020928D01*
X121149976Y-103782833D01*
X121197595Y-103592357D01*
X121245214Y-103497119D01*
X121292833Y-103449500D01*
X121388071Y-103401880D01*
X140009642Y-97797880D02*
X139676309Y-97321690D01*
X139438214Y-97797880D02*
X139438214Y-96797880D01*
X139819166Y-96797880D01*
X139914404Y-96845500D01*
X139962023Y-96893119D01*
X140009642Y-96988357D01*
X140009642Y-97131214D01*
X139962023Y-97226452D01*
X139914404Y-97274071D01*
X139819166Y-97321690D01*
X139438214Y-97321690D01*
X140962023Y-97797880D02*
X140390595Y-97797880D01*
X140676309Y-97797880D02*
X140676309Y-96797880D01*
X140581071Y-96940738D01*
X140485833Y-97035976D01*
X140390595Y-97083595D01*
X141914404Y-97797880D02*
X141342976Y-97797880D01*
X141628690Y-97797880D02*
X141628690Y-96797880D01*
X141533452Y-96940738D01*
X141438214Y-97035976D01*
X141342976Y-97083595D01*
X173442380Y-106552904D02*
X174251904Y-106552904D01*
X174347142Y-106505285D01*
X174394761Y-106457666D01*
X174442380Y-106362428D01*
X174442380Y-106171952D01*
X174394761Y-106076714D01*
X174347142Y-106029095D01*
X174251904Y-105981476D01*
X173442380Y-105981476D01*
X174442380Y-104981476D02*
X174442380Y-105552904D01*
X174442380Y-105267190D02*
X173442380Y-105267190D01*
X173585238Y-105362428D01*
X173680476Y-105457666D01*
X173728095Y-105552904D01*
X122309047Y-74477571D02*
X122451904Y-74525190D01*
X122499523Y-74572809D01*
X122547142Y-74668047D01*
X122547142Y-74810904D01*
X122499523Y-74906142D01*
X122451904Y-74953761D01*
X122356666Y-75001380D01*
X121975714Y-75001380D01*
X121975714Y-74001380D01*
X122309047Y-74001380D01*
X122404285Y-74049000D01*
X122451904Y-74096619D01*
X122499523Y-74191857D01*
X122499523Y-74287095D01*
X122451904Y-74382333D01*
X122404285Y-74429952D01*
X122309047Y-74477571D01*
X121975714Y-74477571D01*
X122880476Y-74001380D02*
X123547142Y-74001380D01*
X122880476Y-75001380D01*
X123547142Y-75001380D01*
X124451904Y-75001380D02*
X123880476Y-75001380D01*
X124166190Y-75001380D02*
X124166190Y-74001380D01*
X124070952Y-74144238D01*
X123975714Y-74239476D01*
X123880476Y-74287095D01*
X116760666Y-116038380D02*
X116760666Y-116752666D01*
X116713047Y-116895523D01*
X116617809Y-116990761D01*
X116474952Y-117038380D01*
X116379714Y-117038380D01*
X117760666Y-117038380D02*
X117189238Y-117038380D01*
X117474952Y-117038380D02*
X117474952Y-116038380D01*
X117379714Y-116181238D01*
X117284476Y-116276476D01*
X117189238Y-116324095D01*
X127174666Y-116038380D02*
X127174666Y-116752666D01*
X127127047Y-116895523D01*
X127031809Y-116990761D01*
X126888952Y-117038380D01*
X126793714Y-117038380D01*
X127603238Y-116133619D02*
X127650857Y-116086000D01*
X127746095Y-116038380D01*
X127984190Y-116038380D01*
X128079428Y-116086000D01*
X128127047Y-116133619D01*
X128174666Y-116228857D01*
X128174666Y-116324095D01*
X128127047Y-116466952D01*
X127555619Y-117038380D01*
X128174666Y-117038380D01*
X137461666Y-116292380D02*
X137461666Y-117006666D01*
X137414047Y-117149523D01*
X137318809Y-117244761D01*
X137175952Y-117292380D01*
X137080714Y-117292380D01*
X138414047Y-116292380D02*
X137937857Y-116292380D01*
X137890238Y-116768571D01*
X137937857Y-116720952D01*
X138033095Y-116673333D01*
X138271190Y-116673333D01*
X138366428Y-116720952D01*
X138414047Y-116768571D01*
X138461666Y-116863809D01*
X138461666Y-117101904D01*
X138414047Y-117197142D01*
X138366428Y-117244761D01*
X138271190Y-117292380D01*
X138033095Y-117292380D01*
X137937857Y-117244761D01*
X137890238Y-117197142D01*
X147875666Y-115911380D02*
X147875666Y-116625666D01*
X147828047Y-116768523D01*
X147732809Y-116863761D01*
X147589952Y-116911380D01*
X147494714Y-116911380D01*
X148780428Y-115911380D02*
X148589952Y-115911380D01*
X148494714Y-115959000D01*
X148447095Y-116006619D01*
X148351857Y-116149476D01*
X148304238Y-116339952D01*
X148304238Y-116720904D01*
X148351857Y-116816142D01*
X148399476Y-116863761D01*
X148494714Y-116911380D01*
X148685190Y-116911380D01*
X148780428Y-116863761D01*
X148828047Y-116816142D01*
X148875666Y-116720904D01*
X148875666Y-116482809D01*
X148828047Y-116387571D01*
X148780428Y-116339952D01*
X148685190Y-116292333D01*
X148494714Y-116292333D01*
X148399476Y-116339952D01*
X148351857Y-116387571D01*
X148304238Y-116482809D01*
X158289666Y-115911380D02*
X158289666Y-116625666D01*
X158242047Y-116768523D01*
X158146809Y-116863761D01*
X158003952Y-116911380D01*
X157908714Y-116911380D01*
X158670619Y-115911380D02*
X159337285Y-115911380D01*
X158908714Y-116911380D01*
X168830666Y-116038380D02*
X168830666Y-116752666D01*
X168783047Y-116895523D01*
X168687809Y-116990761D01*
X168544952Y-117038380D01*
X168449714Y-117038380D01*
X169354476Y-117038380D02*
X169544952Y-117038380D01*
X169640190Y-116990761D01*
X169687809Y-116943142D01*
X169783047Y-116800285D01*
X169830666Y-116609809D01*
X169830666Y-116228857D01*
X169783047Y-116133619D01*
X169735428Y-116086000D01*
X169640190Y-116038380D01*
X169449714Y-116038380D01*
X169354476Y-116086000D01*
X169306857Y-116133619D01*
X169259238Y-116228857D01*
X169259238Y-116466952D01*
X169306857Y-116562190D01*
X169354476Y-116609809D01*
X169449714Y-116657428D01*
X169640190Y-116657428D01*
X169735428Y-116609809D01*
X169783047Y-116562190D01*
X169830666Y-116466952D01*
X115712976Y-91035880D02*
X115712976Y-91750166D01*
X115665357Y-91893023D01*
X115570119Y-91988261D01*
X115427261Y-92035880D01*
X115332023Y-92035880D01*
X116712976Y-92035880D02*
X116141547Y-92035880D01*
X116427261Y-92035880D02*
X116427261Y-91035880D01*
X116332023Y-91178738D01*
X116236785Y-91273976D01*
X116141547Y-91321595D01*
X117332023Y-91035880D02*
X117427261Y-91035880D01*
X117522500Y-91083500D01*
X117570119Y-91131119D01*
X117617738Y-91226357D01*
X117665357Y-91416833D01*
X117665357Y-91654928D01*
X117617738Y-91845404D01*
X117570119Y-91940642D01*
X117522500Y-91988261D01*
X117427261Y-92035880D01*
X117332023Y-92035880D01*
X117236785Y-91988261D01*
X117189166Y-91940642D01*
X117141547Y-91845404D01*
X117093928Y-91654928D01*
X117093928Y-91416833D01*
X117141547Y-91226357D01*
X117189166Y-91131119D01*
X117236785Y-91083500D01*
X117332023Y-91035880D01*
X144315380Y-97837523D02*
X145029666Y-97837523D01*
X145172523Y-97885142D01*
X145267761Y-97980380D01*
X145315380Y-98123238D01*
X145315380Y-98218476D01*
X145315380Y-96837523D02*
X145315380Y-97408952D01*
X145315380Y-97123238D02*
X144315380Y-97123238D01*
X144458238Y-97218476D01*
X144553476Y-97313714D01*
X144601095Y-97408952D01*
X145315380Y-95885142D02*
X145315380Y-96456571D01*
X145315380Y-96170857D02*
X144315380Y-96170857D01*
X144458238Y-96266095D01*
X144553476Y-96361333D01*
X144601095Y-96456571D01*
X172235880Y-90630333D02*
X172950166Y-90630333D01*
X173093023Y-90677952D01*
X173188261Y-90773190D01*
X173235880Y-90916047D01*
X173235880Y-91011285D01*
X172569214Y-89725571D02*
X173235880Y-89725571D01*
X172188261Y-89963666D02*
X172902547Y-90201761D01*
X172902547Y-89582714D01*
X123285261Y-92301119D02*
X123190023Y-92253500D01*
X123094785Y-92158261D01*
X122951928Y-92015404D01*
X122856690Y-91967785D01*
X122761452Y-91967785D01*
X122809071Y-92205880D02*
X122713833Y-92158261D01*
X122618595Y-92063023D01*
X122570976Y-91872547D01*
X122570976Y-91539214D01*
X122618595Y-91348738D01*
X122713833Y-91253500D01*
X122809071Y-91205880D01*
X122999547Y-91205880D01*
X123094785Y-91253500D01*
X123190023Y-91348738D01*
X123237642Y-91539214D01*
X123237642Y-91872547D01*
X123190023Y-92063023D01*
X123094785Y-92158261D01*
X122999547Y-92205880D01*
X122809071Y-92205880D01*
X124190023Y-92205880D02*
X123618595Y-92205880D01*
X123904309Y-92205880D02*
X123904309Y-91205880D01*
X123809071Y-91348738D01*
X123713833Y-91443976D01*
X123618595Y-91491595D01*
X123285261Y-103612119D02*
X123190023Y-103564500D01*
X123094785Y-103469261D01*
X122951928Y-103326404D01*
X122856690Y-103278785D01*
X122761452Y-103278785D01*
X122809071Y-103516880D02*
X122713833Y-103469261D01*
X122618595Y-103374023D01*
X122570976Y-103183547D01*
X122570976Y-102850214D01*
X122618595Y-102659738D01*
X122713833Y-102564500D01*
X122809071Y-102516880D01*
X122999547Y-102516880D01*
X123094785Y-102564500D01*
X123190023Y-102659738D01*
X123237642Y-102850214D01*
X123237642Y-103183547D01*
X123190023Y-103374023D01*
X123094785Y-103469261D01*
X122999547Y-103516880D01*
X122809071Y-103516880D01*
X123618595Y-102612119D02*
X123666214Y-102564500D01*
X123761452Y-102516880D01*
X123999547Y-102516880D01*
X124094785Y-102564500D01*
X124142404Y-102612119D01*
X124190023Y-102707357D01*
X124190023Y-102802595D01*
X124142404Y-102945452D01*
X123570976Y-103516880D01*
X124190023Y-103516880D01*
M02*
