G04 #@! TF.GenerationSoftware,KiCad,Pcbnew,(5.1.5)-3*
G04 #@! TF.CreationDate,2020-01-11T20:00:42-05:00*
G04 #@! TF.ProjectId,data_station_backpack,64617461-5f73-4746-9174-696f6e5f6261,rev?*
G04 #@! TF.SameCoordinates,Original*
G04 #@! TF.FileFunction,Copper,L1,Top*
G04 #@! TF.FilePolarity,Positive*
%FSLAX46Y46*%
G04 Gerber Fmt 4.6, Leading zero omitted, Abs format (unit mm)*
G04 Created by KiCad (PCBNEW (5.1.5)-3) date 2020-01-11 20:00:42*
%MOMM*%
%LPD*%
G04 APERTURE LIST*
%ADD10O,1.700000X1.700000*%
%ADD11R,1.700000X1.700000*%
%ADD12C,1.440000*%
%ADD13C,1.600000*%
%ADD14C,1.200000*%
%ADD15R,1.200000X1.200000*%
%ADD16C,1.800000*%
%ADD17R,1.800000X1.800000*%
%ADD18O,1.600000X1.600000*%
%ADD19O,1.800000X1.800000*%
%ADD20C,1.524000*%
%ADD21R,1.980000X3.960000*%
%ADD22O,1.980000X3.960000*%
%ADD23R,1.850000X1.850000*%
%ADD24C,1.850000*%
%ADD25O,3.960000X1.980000*%
%ADD26R,3.960000X1.980000*%
%ADD27R,0.900000X1.500000*%
%ADD28O,0.900000X1.500000*%
%ADD29C,1.016000*%
%ADD30C,0.685800*%
%ADD31C,0.250000*%
%ADD32C,0.762000*%
%ADD33C,0.254000*%
G04 APERTURE END LIST*
D10*
X174498000Y-75565000D03*
X171958000Y-75565000D03*
X169418000Y-75565000D03*
X166878000Y-75565000D03*
X164338000Y-75565000D03*
X161798000Y-75565000D03*
X159258000Y-75565000D03*
D11*
X156718000Y-75565000D03*
D12*
X136906000Y-88392000D03*
X139446000Y-88392000D03*
X141986000Y-88392000D03*
D13*
X171259500Y-102028000D03*
X171259500Y-97028000D03*
D14*
X166624000Y-88162000D03*
D15*
X166624000Y-89662000D03*
D13*
X164020500Y-93281500D03*
X159020500Y-93281500D03*
X123397000Y-87884000D03*
X128397000Y-87884000D03*
D16*
X114617500Y-99695000D03*
D17*
X114617500Y-102235000D03*
D13*
X114554000Y-111125000D03*
D18*
X124714000Y-111125000D03*
D13*
X127000000Y-111125000D03*
D18*
X137160000Y-111125000D03*
X149606000Y-111125000D03*
D13*
X139446000Y-111125000D03*
X151892000Y-111125000D03*
D18*
X162052000Y-111125000D03*
X174498000Y-111125000D03*
D13*
X164338000Y-111125000D03*
X154749500Y-107823000D03*
D18*
X164909500Y-107823000D03*
X137985500Y-94043500D03*
D13*
X127825500Y-94043500D03*
X145796000Y-87249000D03*
D18*
X155956000Y-87249000D03*
X116141500Y-106108500D03*
D13*
X126301500Y-106108500D03*
D18*
X137985500Y-97345500D03*
D13*
X127825500Y-97345500D03*
D19*
X176847500Y-104076500D03*
X176847500Y-101536500D03*
D17*
X176847500Y-98996500D03*
D20*
X121181000Y-79883000D03*
X114681000Y-79883000D03*
D21*
X114594000Y-116713000D03*
D22*
X119594000Y-116713000D03*
D21*
X124968000Y-116713000D03*
D22*
X129968000Y-116713000D03*
D23*
X141424000Y-81915000D03*
D24*
X143924000Y-81915000D03*
X146424000Y-81915000D03*
X148924000Y-81915000D03*
X151424000Y-81915000D03*
X153924000Y-81915000D03*
D22*
X140382000Y-116713000D03*
D21*
X135382000Y-116713000D03*
X145796000Y-116713000D03*
D22*
X150796000Y-116713000D03*
X161210000Y-116713000D03*
D21*
X156210000Y-116713000D03*
D24*
X174044000Y-81915000D03*
X171544000Y-81915000D03*
X169044000Y-81915000D03*
X166544000Y-81915000D03*
X164044000Y-81915000D03*
D23*
X161544000Y-81915000D03*
D21*
X166624000Y-116713000D03*
D22*
X171624000Y-116713000D03*
D25*
X116459000Y-94297500D03*
D26*
X116459000Y-89297500D03*
D24*
X133778000Y-81915000D03*
X131278000Y-81915000D03*
D23*
X128778000Y-81915000D03*
D10*
X152273000Y-97028000D03*
X149733000Y-97028000D03*
D11*
X147193000Y-97028000D03*
D10*
X174498000Y-123825000D03*
X171958000Y-123825000D03*
X169418000Y-123825000D03*
X166878000Y-123825000D03*
X164338000Y-123825000D03*
D11*
X161798000Y-123825000D03*
X138938000Y-123825000D03*
D10*
X141478000Y-123825000D03*
X144018000Y-123825000D03*
X146558000Y-123825000D03*
X149098000Y-123825000D03*
X151638000Y-123825000D03*
X154178000Y-123825000D03*
X156718000Y-123825000D03*
X152654000Y-75565000D03*
X150114000Y-75565000D03*
X147574000Y-75565000D03*
X145034000Y-75565000D03*
X142494000Y-75565000D03*
X139954000Y-75565000D03*
X137414000Y-75565000D03*
X134874000Y-75565000D03*
X132334000Y-75565000D03*
D11*
X129794000Y-75565000D03*
D26*
X173164500Y-92710000D03*
D25*
X173164500Y-87710000D03*
D27*
X122110500Y-95313500D03*
D28*
X124650500Y-95313500D03*
X123380500Y-95313500D03*
X123380500Y-99504500D03*
X122110500Y-99504500D03*
D27*
X124650500Y-99504500D03*
D29*
X140779502Y-85661500D03*
D30*
X136969500Y-91059000D03*
X166624000Y-111633000D03*
X135064500Y-87376000D03*
X160401000Y-79375000D03*
X141478000Y-79375000D03*
X160909000Y-80137000D03*
X140715990Y-80137000D03*
X137414000Y-80137000D03*
D31*
X150796000Y-116713000D02*
X150796000Y-114483000D01*
D32*
X141073000Y-113792000D02*
X141097000Y-113792000D01*
X140382000Y-114483000D02*
X141073000Y-113792000D01*
D31*
X140382000Y-116713000D02*
X140382000Y-114483000D01*
D32*
X141224000Y-113665000D02*
X141097000Y-113792000D01*
X150796000Y-114483000D02*
X149978000Y-113665000D01*
X149978000Y-113665000D02*
X141224000Y-113665000D01*
X119594000Y-114483000D02*
X119594000Y-116713000D01*
X120412000Y-113665000D02*
X119594000Y-114483000D01*
X130429000Y-114022000D02*
X130429000Y-113792000D01*
X129968000Y-116713000D02*
X129968000Y-114483000D01*
X129968000Y-114483000D02*
X130429000Y-114022000D01*
X141224000Y-113665000D02*
X130429000Y-113792000D01*
X130429000Y-113792000D02*
X120412000Y-113665000D01*
X153924000Y-85217000D02*
X155956000Y-87249000D01*
X153924000Y-81915000D02*
X153924000Y-85217000D01*
X128778000Y-83094000D02*
X128778000Y-81915000D01*
X155156001Y-88048999D02*
X155956000Y-87249000D01*
X141986000Y-88392000D02*
X143129000Y-89535000D01*
X153670000Y-89535000D02*
X155156001Y-88048999D01*
X143129000Y-89535000D02*
X153670000Y-89535000D01*
X112331500Y-105584500D02*
X120412000Y-113665000D01*
X112331500Y-100520500D02*
X112331500Y-105584500D01*
X113157000Y-99695000D02*
X114617500Y-99695000D01*
X112331500Y-100520500D02*
X113157000Y-99695000D01*
X155274000Y-97028000D02*
X159020500Y-93281500D01*
X152273000Y-97028000D02*
X155274000Y-97028000D01*
X128778000Y-83094000D02*
X131345500Y-85661500D01*
X131345500Y-85661500D02*
X140061082Y-85661500D01*
X140061082Y-85661500D02*
X140779502Y-85661500D01*
X175574708Y-104076500D02*
X176847500Y-104076500D01*
X159020500Y-93281500D02*
X169815500Y-104076500D01*
X169815500Y-104076500D02*
X175574708Y-104076500D01*
X128778000Y-87503000D02*
X128397000Y-87884000D01*
X128778000Y-83094000D02*
X128778000Y-87503000D01*
X128397000Y-87884000D02*
X126428500Y-87884000D01*
X116903500Y-97409000D02*
X114617500Y-99695000D01*
X126428500Y-87884000D02*
X116903500Y-97409000D01*
X162155000Y-113538000D02*
X161210000Y-114483000D01*
X161210000Y-114483000D02*
X161210000Y-116713000D01*
X170679000Y-113538000D02*
X162155000Y-113538000D01*
X171624000Y-116713000D02*
X171624000Y-114483000D01*
X173228000Y-98996500D02*
X171259500Y-97028000D01*
X176847500Y-98996500D02*
X173228000Y-98996500D01*
X173164500Y-95123000D02*
X171259500Y-97028000D01*
X173164500Y-92710000D02*
X173164500Y-95123000D01*
X170930500Y-92710000D02*
X173164500Y-92710000D01*
X170624500Y-113538000D02*
X170679000Y-113538000D01*
X171624000Y-114483000D02*
X170624500Y-113538000D01*
X176847500Y-98996500D02*
X178001500Y-98996500D01*
X178001500Y-98996500D02*
X178689000Y-99684000D01*
X154368500Y-92900500D02*
X140843000Y-92900500D01*
X139001500Y-91059000D02*
X136969500Y-91059000D01*
X157607000Y-89662000D02*
X154368500Y-92900500D01*
X166624000Y-89662000D02*
X157607000Y-89662000D01*
X140843000Y-92900500D02*
X139001500Y-91059000D01*
X166624000Y-89662000D02*
X167576500Y-89662000D01*
X170624500Y-92710000D02*
X170930500Y-92710000D01*
X167576500Y-89662000D02*
X170624500Y-92710000D01*
X175895000Y-113538000D02*
X170624500Y-113538000D01*
X178689000Y-99684000D02*
X178689000Y-110744000D01*
X178689000Y-110744000D02*
X175895000Y-113538000D01*
D33*
X114617500Y-104584500D02*
X116141500Y-106108500D01*
X114617500Y-102235000D02*
X114617500Y-104584500D01*
D31*
X161798000Y-123825000D02*
X161798000Y-122725000D01*
D33*
X114594000Y-118943000D02*
X114594000Y-116713000D01*
X116999500Y-121348500D02*
X114594000Y-118943000D01*
X161798000Y-122725000D02*
X160421500Y-121348500D01*
X160421500Y-121348500D02*
X116999500Y-121348500D01*
X124968000Y-118943000D02*
X124968000Y-116713000D01*
D31*
X126421000Y-120396000D02*
X124968000Y-118943000D01*
D33*
X126738500Y-120713500D02*
X126421000Y-120396000D01*
X164338000Y-123825000D02*
X161226500Y-120713500D01*
X161226500Y-120713500D02*
X126738500Y-120713500D01*
X145796000Y-83787000D02*
X145796000Y-87249000D01*
X143924000Y-81915000D02*
X145796000Y-83787000D01*
X147066000Y-88519000D02*
X151424000Y-84161000D01*
X151424000Y-83223147D02*
X151424000Y-81915000D01*
X140081000Y-88392000D02*
X141287500Y-87185500D01*
X151424000Y-84161000D02*
X151424000Y-83223147D01*
X139446000Y-88392000D02*
X140081000Y-88392000D01*
X144780000Y-88519000D02*
X147066000Y-88519000D01*
X141287500Y-87185500D02*
X143446500Y-87185500D01*
X143446500Y-87185500D02*
X144780000Y-88519000D01*
X136581000Y-120142000D02*
X135382000Y-118943000D01*
X166878000Y-123825000D02*
X163195000Y-120142000D01*
X135382000Y-118943000D02*
X135382000Y-116713000D01*
X163195000Y-120142000D02*
X136581000Y-120142000D01*
X146423500Y-119570500D02*
X145796000Y-118943000D01*
X169418000Y-123825000D02*
X165163500Y-119570500D01*
X145796000Y-118943000D02*
X145796000Y-116713000D01*
X165163500Y-119570500D02*
X146423500Y-119570500D01*
X171958000Y-123825000D02*
X167178967Y-119045967D01*
X156312967Y-119045967D02*
X156210000Y-118943000D01*
X167178967Y-119045967D02*
X156312967Y-119045967D01*
X156210000Y-118943000D02*
X156210000Y-116713000D01*
X167386000Y-116713000D02*
X166624000Y-116713000D01*
X174498000Y-123825000D02*
X167386000Y-116713000D01*
X155880870Y-107823000D02*
X154749500Y-107823000D01*
X157468370Y-109410500D02*
X155880870Y-107823000D01*
X165417500Y-109410500D02*
X157468370Y-109410500D01*
X166624000Y-110617000D02*
X165417500Y-109410500D01*
X166624000Y-111633000D02*
X166624000Y-110617000D01*
X123380500Y-94309500D02*
X123380500Y-95313500D01*
X123646500Y-94043500D02*
X123380500Y-94309500D01*
X127825500Y-94043500D02*
X123646500Y-94043500D01*
X122110500Y-101917500D02*
X126301500Y-106108500D01*
X122110500Y-99504500D02*
X122110500Y-101917500D01*
X123380500Y-99135500D02*
X123380500Y-100139500D01*
X123735501Y-98145499D02*
X123380500Y-98500500D01*
X127025501Y-98145499D02*
X123735501Y-98145499D01*
X123380500Y-98500500D02*
X123380500Y-99504500D01*
X127825500Y-97345500D02*
X127025501Y-98145499D01*
X137985500Y-95174870D02*
X137985500Y-97345500D01*
X137985500Y-94043500D02*
X137985500Y-95174870D01*
X135064500Y-91122500D02*
X137985500Y-94043500D01*
X135064500Y-87376000D02*
X135064500Y-91122500D01*
X142494000Y-75565000D02*
X142494000Y-76390500D01*
X136969500Y-81915000D02*
X133778000Y-81915000D01*
X142494000Y-76390500D02*
X136969500Y-81915000D01*
X121371500Y-80073500D02*
X121181000Y-79883000D01*
X133778000Y-81915000D02*
X131936500Y-80073500D01*
X131936500Y-80073500D02*
X121371500Y-80073500D01*
X160401000Y-79375000D02*
X141478000Y-79375000D01*
X160909000Y-80137000D02*
X140715990Y-80137000D01*
X137414000Y-75565000D02*
X137414000Y-80137000D01*
D31*
X169418000Y-81541000D02*
X169044000Y-81915000D01*
X169418000Y-75565000D02*
X169418000Y-81541000D01*
X166878000Y-81581000D02*
X166544000Y-81915000D01*
X166878000Y-75565000D02*
X166878000Y-81581000D01*
X164338000Y-81621000D02*
X164044000Y-81915000D01*
X164338000Y-75565000D02*
X164338000Y-81621000D01*
X161798000Y-81661000D02*
X161544000Y-81915000D01*
X161798000Y-75565000D02*
X161798000Y-81661000D01*
D33*
X141478000Y-122682000D02*
X141478000Y-123825000D01*
X141922500Y-122237500D02*
X141478000Y-122682000D01*
X149098000Y-123825000D02*
X149098000Y-122622919D01*
X148712581Y-122237500D02*
X141922500Y-122237500D01*
X149098000Y-122622919D02*
X148712581Y-122237500D01*
M02*
